<?xml version="1.0" ?><!DOCTYPE svg  PUBLIC '-//W3C//DTD SVG 1.1//EN'  'http://www.w3.org/Graphics/SVG/1.1/DTD/svg11.dtd'><svg enable-background="new 0 0 512 512" height="512px" id="Layer_1" version="1.1" viewBox="0 0 512 512" width="512px" xml:space="preserve" xmlns="http://www.w3.org/2000/svg" xmlns:xlink="http://www.w3.org/1999/xlink"><g><path d="M512,256c0,141.387-114.613,256-256,256S0,397.387,0,256C0,114.62,114.613,0,256,0   C397.387,0,512,114.62,512,256z" fill="#F6A300"/><path d="M96.793,334.286c0.78,0,1.44-0.636,1.554-1.543l4.239-33.604l-4.227-34.374   c-0.126-0.899-0.786-1.547-1.566-1.547c-0.8,0-1.479,0.657-1.586,1.547L91.5,299.141l3.707,33.594   C95.313,333.634,95.993,334.286,96.793,334.286z" fill="#FFFFFF"/><path d="M82.813,321.507c0.767,0,1.387-0.597,1.5-1.482l3.286-20.884l-3.286-21.272   c-0.113-0.867-0.733-1.486-1.5-1.486c-0.8,0-1.42,0.619-1.533,1.5l-2.747,21.26l2.747,20.876   C81.394,320.9,82.014,321.507,82.813,321.507z" fill="#FFFFFF"/><path d="M113.514,258.373c-0.1-1.098-0.9-1.893-1.895-1.893c-0.985,0-1.786,0.795-1.879,1.893l-3.54,40.768   l3.54,39.279c0.093,1.087,0.894,1.873,1.879,1.873c0.994,0,1.795-0.786,1.895-1.873l4.006-39.279L113.514,258.373z" fill="#FFFFFF"/><path d="M126.606,341.874c1.16,0,2.101-0.954,2.213-2.204l3.787-40.52l-3.787-41.904   c-0.112-1.256-1.053-2.206-2.213-2.206c-1.18,0-2.133,0.95-2.213,2.21l-3.347,41.9l3.347,40.52   C124.474,340.92,125.427,341.874,126.606,341.874z" fill="#FFFFFF"/><path d="M141.693,342.533c1.354,0,2.44-1.086,2.554-2.536l-0.014,0.013l3.566-40.858l-3.566-38.878   c-0.1-1.431-1.187-2.529-2.54-2.529c-1.374,0-2.453,1.1-2.533,2.54l-3.153,38.867l3.153,40.847   C139.24,341.447,140.319,342.533,141.693,342.533z" fill="#FFFFFF"/><path d="M163.119,299.164l-3.346-63.221c-0.093-1.6-1.34-2.876-2.873-2.876c-1.52,0-2.767,1.276-2.86,2.876   l-2.96,63.221l2.96,40.846c0.094,1.607,1.341,2.871,2.86,2.871c1.533,0,2.78-1.264,2.873-2.871v0.011L163.119,299.164z" fill="#FFFFFF"/><path d="M172.26,342.947c1.688,0,3.087-1.4,3.167-3.188v0.026l3.126-40.612l-3.126-77.687   c-0.08-1.787-1.479-3.187-3.167-3.187c-1.727,0-3.112,1.4-3.207,3.187l-2.753,77.687l2.767,40.601   C169.147,341.547,170.533,342.947,172.26,342.947z" fill="#FFFFFF"/><path d="M187.707,211.487c-1.9,0-3.434,1.56-3.514,3.526l-2.56,84.173l2.56,40.173   c0.08,1.954,1.613,3.504,3.514,3.504c1.893,0,3.44-1.533,3.507-3.511v0.017l2.905-40.183l-2.905-84.173   C191.147,213.037,189.6,211.487,187.707,211.487z" fill="#FFFFFF"/><path d="M203.286,342.947c2.087,0,3.747-1.685,3.827-3.854v0.026l2.687-39.934l-2.687-86.996   c-0.08-2.161-1.74-3.85-3.827-3.85c-2.1,0-3.786,1.689-3.819,3.85l-2.414,86.996l2.414,39.934   C199.5,341.264,201.187,342.947,203.286,342.947z" fill="#FFFFFF"/><path d="M218.993,342.907c2.254,0,4.08-1.844,4.147-4.182v0.037l2.473-39.569l-2.473-84.784   c-0.067-2.336-1.894-4.176-4.147-4.176c-2.267,0-4.093,1.84-4.16,4.176l-2.173,84.784l2.187,39.547   C214.9,341.063,216.727,342.907,218.993,342.907z" fill="#FFFFFF"/><path d="M241.526,299.193l-2.24-81.693c-0.053-2.523-2.026-4.5-4.473-4.5c-2.454,0-4.427,1.977-4.48,4.513   l-2.007,81.68l2.007,39.31c0.054,2.497,2.026,4.479,4.48,4.479c2.446,0,4.42-1.98,4.473-4.515v0.036L241.526,299.193z" fill="#FFFFFF"/><path d="M250.753,343.057c2.601,0,4.754-2.163,4.794-4.825v0.021l2.033-39.039L255.547,202   c-0.04-2.67-2.193-4.83-4.794-4.83c-2.6,0-4.746,2.167-4.8,4.84l-1.806,97.164l1.806,39.079   C246.007,340.894,248.153,343.057,250.753,343.057z" fill="#FFFFFF"/><path d="M266.641,188.026c-2.808,0-5.088,2.327-5.134,5.167l-2.1,106.033l2.112,38.46   c0.032,2.808,2.313,5.128,5.121,5.128c2.767,0,5.086-2.32,5.1-5.174v0.046l2.293-38.46l-2.293-106.033   C271.727,190.347,269.407,188.026,266.641,188.026z" fill="#FFFFFF"/><path d="M281.167,343.093c0.113,0.007,128.047,0.067,128.866,0.067c25.687,0,46.5-21.067,46.5-47.067   c0-25.989-20.813-47.063-46.5-47.063c-6.373,0-12.447,1.304-17.986,3.667C388.367,210.267,353.22,177,310.348,177   c-10.479,0-20.699,2.093-29.729,5.63c-3.512,1.374-4.452,2.79-4.479,5.53V337.52C276.182,340.41,278.381,342.807,281.167,343.093z" fill="#FFFFFF"/></g></svg>